<svg id="Icons" viewBox="0 0 60 60" xmlns="http://www.w3.org/2000/svg"><g fill="#65a7ef"><path d="m56.48 30.493c-.172 0-.34-.09-.433-.25-.139-.239-.057-.545.183-.683l2.223-1.284c.238-.14.543-.057.683.183.139.239.057.545-.183.683l-2.223 1.284c-.079.046-.165.067-.25.067z"/><path d="m44.182 47.334c-.16 0-.317-.077-.413-.219-.147-.216-.104-.51.102-.673l5.064-4.03-.345.198c-.227.133-.52.064-.666-.155s-.098-.514.112-.674l1.339-1.026c-.118-.025-.228-.093-.303-.197-.149-.209-.117-.497.075-.667l2.261-1.995-.553.319c-.22.13-.505.068-.656-.141-.149-.209-.117-.497.076-.667l1.383-1.218-.176.101c-.217.125-.494.07-.647-.129-.152-.199-.133-.481.045-.658l1.985-1.975-.887.512c-.22.131-.505.068-.656-.141-.149-.208-.117-.497.075-.667l2.688-2.375-1.863 1.075c-.217.128-.498.07-.65-.134-.151-.202-.128-.487.056-.661l2.138-2.029-2.242 1.294c-.219.13-.506.069-.656-.142-.15-.209-.117-.498.077-.667l1.296-1.136-2.846 1.643c-.225.132-.513.065-.661-.147-.148-.214-.107-.506.094-.671l1.784-1.469-.199.114c-.223.131-.511.066-.659-.146-.149-.212-.111-.503.087-.67l1.601-1.346c-.05-.03-.094-.069-.132-.117-.153-.194-.142-.473.029-.653l1.411-1.494c-.132-.237-.049-.538.188-.674l1.051-.606c.213-.125.488-.072.643.123.153.194.142.473-.029.653l-.189.2.294-.169c.225-.132.511-.066.659.146.149.212.111.503-.087.67l-.457.384.525-.303c.224-.132.513-.065.661.147.148.214.107.506-.094.671l-1.783 1.468 2.018-1.164c.221-.128.506-.068.656.142.15.209.117.498-.077.667l-1.295 1.135 1.489-.859c.218-.128.498-.07.65.134.151.202.128.487-.056.661l-2.138 2.03 2.521-1.456c.221-.128.506-.067.656.141.149.208.117.497-.075.667l-2.716 2.399c.203-.073.437-.013.572.165.152.199.133.481-.045.658l-1.983 1.973 1.201-.693c.22-.129.505-.067.656.141.149.209.117.497-.076.667l-1.381 1.217.531-.307c.222-.129.505-.067.656.141.149.209.117.497-.075.667l-2.263 1.996 1.173-.677c.226-.134.52-.063.666.155s.098.514-.112.674l-.835.641c.175-.01.354.061.46.217.147.216.104.51-.102.673l-5.063 4.03 3.232-1.866c.238-.14.545-.058.683.183.139.239.057.545-.183.683l-9.046 5.223c-.078.046-.165.067-.25.067z"/><path d="m29.056 56.445c-.161 0-.317-.077-.414-.219-.147-.216-.103-.509.101-.672l.308-.245-1.627.938c-.213.127-.485.073-.639-.119-.155-.191-.146-.467.019-.649l1.303-1.437-3.148 1.817c-.201.117-.456.078-.615-.091-.159-.17-.18-.427-.05-.62l1.21-1.809-3.172 1.831c-.197.115-.447.08-.607-.083s-.188-.414-.07-.609l1.104-1.817-2.801 1.617c-.196.113-.443.082-.603-.079-.16-.159-.193-.406-.081-.603l1.057-1.839-2.533 1.462c-.217.127-.492.071-.644-.125-.153-.196-.139-.476.035-.655l.387-.4-.909.524c-.219.127-.492.071-.645-.126s-.138-.477.037-.655l.308-.316-.736.425c-.216.125-.49.071-.643-.123-.154-.195-.141-.474.03-.653l.384-.405-.786.453c-.208.122-.47.076-.628-.105-.157-.181-.163-.447-.015-.636l.84-1.069-1.43.825c-.204.121-.467.077-.625-.102-.158-.178-.168-.442-.024-.633l.902-1.195-1.45.837c-.214.128-.486.072-.641-.121-.154-.193-.144-.471.025-.652l.426-.458-.654.377c-.205.12-.464.076-.622-.099-.158-.176-.171-.438-.032-.629l.983-1.348-1.428.824c-.214.126-.487.072-.641-.121s-.144-.47.024-.651l.456-.491-.576.332c-.216.128-.494.071-.647-.129-.153-.199-.134-.48.044-.658l.12-.119-.125.071c-.199.117-.451.08-.611-.087-.159-.166-.184-.42-.061-.614l1.05-1.648-1.08.623c-.24.139-.545.056-.683-.183s-.056-.545.183-.683l2.85-1.645c.199-.118.451-.08.611.087.159.166.184.42.061.614l-1.05 1.647 1.66-.958c.22-.127.495-.07.647.129.153.199.134.48-.044.658l-.118.117.14-.08c.214-.126.487-.073.641.121.154.193.144.47-.024.651l-.456.492.604-.349c.204-.121.464-.077.622.099s.171.438.032.629l-.984 1.349 1.487-.857c.216-.126.487-.072.641.121s.144.471-.025.652l-.426.458.704-.406c.207-.12.467-.076.625.102s.168.442.024.633l-.902 1.194 1.541-.889c.208-.121.471-.076.628.105s.163.447.015.636l-.84 1.069 1.526-.881c.214-.127.489-.072.643.123s.141.474-.03.653l-.384.404.884-.51c.215-.127.492-.072.645.126.153.197.138.477-.037.655l-.309.317.86-.496c.217-.127.491-.071.644.125s.139.476-.035.655l-.386.4 1.059-.611c.194-.115.443-.082.603.079.16.159.193.406.081.603l-1.057 1.839 2.884-1.665c.197-.115.447-.08.607.083s.188.414.07.609l-1.104 1.817 3.339-1.928c.201-.119.456-.079.615.091s.18.427.05.62l-1.21 1.809 4.057-2.342c.214-.125.486-.073.639.119.154.191.146.467-.019.649l-1.304 1.437 4.631-2.673c.225-.134.515-.065.663.151.147.216.104.509-.102.672l-.307.245 5.336-3.08c.225-.132.512-.066.66.146s.109.504-.09.67l-3.109 2.598 13.431-7.753c.229-.136.525-.062.671.162.145.225.087.523-.131.678l-5.022 3.572 1.235-.713c.238-.14.545-.057.683.183.139.239.057.545-.183.683l-10.382 5.994c-.23.134-.526.062-.671-.162-.145-.225-.087-.523.131-.678l5.025-3.574-9.296 5.366c-.225.131-.512.066-.66-.146s-.109-.504.09-.67l3.109-2.598-6.1 3.521c-.079.046-.165.067-.25.067z"/><path d="m5.203 37.258c-.154 0-.305-.07-.402-.202-.151-.203-.126-.488.059-.662l1.71-1.607-2.008 1.159c-.229.134-.521.064-.667-.156s-.096-.516.115-.675l.23-.175-.281.162c-.218.127-.493.069-.646-.127-.153-.198-.136-.479.041-.657l1.975-1.999-2.377 1.372c-.22.129-.499.069-.65-.134-.152-.202-.128-.486.056-.661l2.3-2.187-2.716 1.567c-.169.098-.379.089-.538-.024-.159-.112-.239-.307-.204-.498l.138-.754-.047.026c-.24.138-.545.056-.683-.183s-.056-.545.183-.683l.983-.567c.168-.099.378-.09.538.024.159.112.239.307.204.498l-.138.754 5.424-3.131c.221-.129.5-.069.65.134.152.202.128.486-.056.661l-2.3 2.187 1.947-1.123c.218-.127.493-.069.646.127.153.198.136.479-.041.657l-1.975 1.999 4.011-2.315c.229-.135.521-.064.667.156s.096.516-.115.675l-1.069.81c.114.025.219.09.293.19.151.203.126.488-.059.662l-2.301 2.162c.104.039.195.113.254.217.138.239.056.545-.183.683l-2.72 1.57c-.079.046-.165.067-.25.067z"/><path d="m49.201 19.091c-.148 0-.295-.066-.394-.191-.153-.195-.14-.474.032-.653l.186-.195-.41.236c-.199.118-.453.08-.612-.089-.159-.167-.183-.423-.057-.616l1.176-1.809-1.643.948c-.212.124-.482.072-.639-.117-.154-.191-.147-.467.017-.649l.567-.632-.757.437c-.209.122-.476.075-.632-.11s-.157-.455-.003-.642l.764-.922-1.115.644c-.203.119-.461.078-.62-.097-.158-.175-.174-.436-.036-.627l.977-1.366-1.605.927c-.196.115-.446.081-.606-.082-.16-.162-.189-.412-.072-.607l1.062-1.771-2.055 1.186c-.195.114-.444.081-.604-.079s-.192-.408-.079-.604l1.046-1.811-2.272 1.312c-.197.115-.444.08-.604-.08-.16-.161-.191-.409-.077-.604l1.041-1.781-2.497 1.441c-.204.119-.464.078-.622-.099-.158-.176-.171-.438-.031-.629l.986-1.35-2.345 1.354c-.218.128-.499.071-.651-.135-.151-.204-.126-.489.06-.662l.078-.073-.866.499c-.212.124-.484.073-.64-.119-.154-.192-.146-.469.021-.65l.805-.883-2.211 1.276c-.208.122-.478.075-.634-.112s-.155-.458.003-.644l1.07-1.263-3.144 1.814c-.21.124-.478.075-.633-.111-.156-.186-.156-.457 0-.643l1.294-1.544-4.458 2.573c-.223.132-.508.067-.658-.144-.149-.21-.114-.5.082-.668l.831-.716-4.797 2.77c-.239.139-.545.056-.683-.183s-.056-.545.183-.683l9.404-5.43c.22-.131.507-.068.658.144.148.21.113.5-.082.668l-.833.717 2.307-1.331c.208-.123.477-.075.633.111s.156.457 0 .643l-1.295 1.543 3.184-1.837c.208-.123.478-.075.634.112s.155.458-.003.644l-1.07 1.263 2.51-1.448c.212-.125.485-.072.64.119.154.192.146.469-.021.65l-.806.883 1.825-1.053c.218-.128.499-.071.651.135.151.204.126.489-.06.662l-.074.07.642-.37c.204-.12.463-.077.622.099.158.176.171.438.031.629l-.986 1.35 2.078-1.199c.195-.116.444-.081.604.08s.191.409.077.604l-1.041 1.781 2.257-1.302c.195-.115.444-.083.604.079.16.16.192.408.079.604l-1.046 1.811 2.107-1.216c.197-.116.446-.081.606.082.16.162.189.412.072.607l-1.061 1.771 1.936-1.117c.203-.12.462-.077.62.097.158.175.174.436.036.627l-.977 1.365 1.526-.881c.207-.122.476-.077.632.11.156.185.157.455.003.642l-.765.923 1.066-.615c.21-.125.481-.074.639.117.154.191.147.467-.017.649l-.566.631.727-.419c.201-.116.453-.079.612.089.159.167.183.423.057.616l-1.176 1.809 1.618-.934c.213-.126.488-.073.643.124.154.195.141.474-.031.653l-.229.241c.211-.059.447.031.562.232.139.239.057.545-.183.683l-2.851 1.645c-.078.046-.164.067-.25.067z"/><path d="m4.039 30.208c-.155 0-.307-.072-.404-.205-.151-.207-.121-.494.068-.665l.875-.793-.231.133c-.219.127-.496.068-.648-.13-.152-.2-.132-.482.047-.659l2.091-2.062-1.267.731c-.223.13-.505.067-.655-.14-.15-.208-.119-.496.073-.667l1.797-1.598-.848.489c-.225.13-.51.066-.659-.145-.149-.212-.112-.502.085-.669l2.144-1.822-1.02.589c-.226.133-.514.066-.662-.149s-.105-.508.097-.672l3.232-2.619-1.765 1.019c-.235.139-.536.06-.677-.173-.141-.232-.071-.534.158-.681l6.109-3.91-4.556 2.63c-.233.137-.531.061-.674-.169-.143-.229-.078-.529.146-.68l7.461-4.988-5.093 2.939c-.228.133-.518.063-.665-.153-.147-.218-.1-.512.107-.674l5.607-4.377-.01.005c-.239.138-.545.056-.683-.183s-.056-.545.183-.683l6.216-3.589c.228-.134.518-.064.665.153s.1.512-.107.674l-5.607 4.377 12.042-6.951c.235-.136.533-.061.674.169.143.229.078.529-.146.68l-7.459 4.987 10.331-5.964c.235-.137.536-.059.677.173.142.232.071.534-.158.681l-17.069 10.926c.067.194.009.417-.158.553l-3.229 2.616.312-.18c.224-.133.51-.068.659.145.149.212.112.502-.085.669l-2.147 1.825.316-.183c.223-.131.505-.066.655.14.15.208.119.496-.073.667l-1.792 1.593.398-.229c.218-.129.496-.07.647.13.153.2.133.482-.046.659l-2.095 2.066.909-.524c.222-.129.503-.067.654.138.15.207.121.494-.068.665l-.873.791.041-.023c.238-.14.544-.057.683.183.138.239.056.545-.183.683l-4.099 2.366c-.079.046-.165.067-.25.067z"/></g><path d="m37.092 50.262c-19.748 6.377-23.41-12.785-28.473-8.553-4.993 2.837 6.59 10.691 9.359 12.065 16.716 8.875 38.74-4.274 38.732-23.224 6.353.499.038-5.692-1.455-7.97-2.617-2.241-5.006 4.418-6.641 5.947-1.258 1.952 1.114 2.047 2.626 2.031-.274 8.743-5.793 16.771-14.148 19.703zm15.642-20.312c-.147-1.08-2.413-.043-2.943-.5-.296-.345.595-1.238.759-1.468.804-.706 3.228-5.281 3.6-4.446 1.192 2.021 3.068 3.777 4.028 5.914-.878.158-2.527-.473-2.915.6.479 24.474-32.709 34.798-46.09 14.264-.728-1.066-.64-1.286.292-1.823.801-.462 1.016-.789 1.629.118 11.588 18.306 42.172 8.984 41.64-12.658z" fill="#262626"/><path d="m.523 31.508c1.771 1.728 4.085 8.765 6.935 5.451 1.342-2.265 7.586-8.189 1.299-7.532.489-21.57 28.657-28.198 39.835-10.366 1.245.494 2.508-.648 3.52-1.21 2.556-3.134-5.148-8.267-7.413-10.096-16.584-11.485-41.547 1.437-41.407 21.701-1.498.005-3.901.18-2.768 2.052zm1.387-.969c.829-.189 2.45.482 2.825-.592-.719-21.12 26.471-33.626 41.884-19.041 1.249 1.46 7.487 6.305 2.949 7.172-8.426-13.434-29.489-14.218-38.343-.691-1.602 2.108-6.903 13.782-2.014 13.153 3.159-.642-2.975 5.199-3.182 6.311-1.193-1.972-2.97-4.08-4.21-6.027-.15-.489-.201-.167.093-.284z" fill="#262626"/></svg>