<?xml version="1.0" encoding="UTF-8"?>
<svg xmlns="http://www.w3.org/2000/svg" xmlns:xlink="http://www.w3.org/1999/xlink" version="1.1" id="Capa_1" x="0px" y="0px" viewBox="0 0 512 512" style="enable-background:new 0 0 512 512;" xml:space="preserve" width="512" height="512">
<g>
	<g>
		<g>
			<path style="fill:#FF8FB4;" d="M88.397,198.489v-24.105c0-53.614,36.599-96.97,90.212-96.97l23.24-0.832h3.808&#10;&#9;&#9;&#9;&#9;c27.833,0,50.397,22.563,50.397,50.397v0l-65.864,8.474c-25.905,0.026-46.88,21.055-46.839,46.96l-11.482,23.285L88.397,198.489z&#10;&#9;&#9;&#9;&#9;"/>
		</g>
		<g>
			<path style="fill:#FC6D96;" d="M206.248,76.582c-53.44,0.2-96.705,43.593-96.705,97.08v28.522l-28.17-4.425v-24.097&#10;&#9;&#9;&#9;&#9;c0-53.617,43.464-97.08,97.08-97.08H206.248z"/>
		</g>
		<path style="fill:#FC6D96;" d="M280.563,206.034c0,13.769-3.942,26.615-10.751,37.48c0,0-6.764,3.889-9.745,7.116&#10;&#9;&#9;&#9;c-12.915,13.98-29.66,26.093-50.194,26.093c-39.041,0-70.689-31.649-70.689-70.689s31.649-70.689,70.689-70.689&#10;&#9;&#9;&#9;c35.292,0,60.257,25.58,65.549,59.388c0.27,1.728,4.904,5.526,4.904,5.526C280.481,202.164,280.563,204.09,280.563,206.034z"/>
		<path style="fill:#F44E7E;" d="M268.116,201.292h-12.232c-2.819,0-4.466,3.128-2.921,5.486&#10;&#9;&#9;&#9;c7.401,11.293,13.11,23.675,16.849,36.737c-12.91,20.646-36.217,34.126-62.578,33.165c-36.502-1.33-66.303-30.831-67.977-67.319&#10;&#9;&#9;&#9;c-1.86-40.552,30.476-74.011,70.618-74.011c37.09,0,67.517,28.569,70.452,64.908C276.701,200.856,274.944,201.542,268.116,201.292&#10;&#9;&#9;&#9;z"/>
		<g>
			<path style="fill:#6A97FC;" d="M134.988,190.887v-16.703c0-26.029,18.722-45.235,44.575-45.235l21.76-1.97l69.437-0.001v50.926&#10;&#9;&#9;&#9;&#9;l-88.381-0.088L134.988,190.887z"/>
		</g>
		<g>
			<path style="fill:#477DFB;" d="M204.593,126.982c-25.858,0-46.879,21.174-46.879,47.196v10.024l-25.822,6.69v-16.714&#10;&#9;&#9;&#9;&#9;c0-26.022,21.022-47.196,46.879-47.196H204.593z"/>
		</g>
		<path style="fill:#FF8FB4;" d="M137.327,168.165h-0.264c-57.44,0-97.051,44.267-97.051,100.803l0,0&#10;&#9;&#9;&#9;c0,91.061,68.438,159.187,160.954,159.187l0,0c6.714,0,13.21-0.923,19.363-2.647c14.743-4.131,23.981-7.21,32.227-18.453&#10;&#9;&#9;&#9;c2.447-3.337,8.678-9.054,8.678-9.054c7.731-16.271,8.744-35.675,1.056-53.717c-5.775-13.551-10.804-28.975-10.785-63.93&#10;&#9;&#9;&#9;C251.537,218.364,200.308,168.165,137.327,168.165z"/>
		<path style="fill:#FC6D96;" d="M261.234,398.002c-7.712,16.303-22.144,29.4-41.3,34.764c-6.15,1.725-12.641,2.653-19.355,2.653&#10;&#9;&#9;&#9;c-46.257,0-88.136-18.451-118.454-48.299c-20.258-19.937-35.351-44.956-43.135-72.948c-3.865-13.9-5.927-28.533-5.927-43.64&#10;&#9;&#9;&#9;c0-29.285,12.489-55.694,32.513-74.345c-8.733,14.989-13.733,32.36-13.733,50.87c0,45.53,18.745,86.751,49.062,116.588&#10;&#9;&#9;&#9;c30.318,29.848,72.197,48.299,118.454,48.299c6.714,0,13.205-0.927,19.355-2.653C247.212,406.908,254.766,403.037,261.234,398.002&#10;&#9;&#9;&#9;z"/>
		<g>
			<polygon style="fill:#6A97FC;" points="43.326,182.701 43.326,98.852 83.895,98.242 83.895,179.094 &#9;&#9;&#9;"/>
		</g>
		<g>
			<polygon style="fill:#477DFB;" points="60.399,98.848 60.399,180.775 33.403,182.7 33.403,98.242 &#9;&#9;&#9;"/>
		</g>
		<path style="fill:#82ACFC;" d="M292.42,152.44c0,14.063-9.697,25.463-21.66,25.463c-9.745,0-17.989-7.565-20.71-17.973l2.37-7.5&#10;&#9;&#9;&#9;l-2.36-7.5c2.726-10.397,10.961-17.953,20.7-17.953C282.722,126.977,292.42,138.377,292.42,152.44z"/>
		<ellipse style="fill:#82ACFC;" cx="58.649" cy="98.242" rx="25.246" ry="21.66"/>
		<path style="fill:#FFC6DC;" d="M70.573,153.135L49.64,163.189c-5.892,2.83-11.344,6.407-16.237,10.614&#10;&#9;&#9;&#9;c0,0-5.321,6.495-8.083,9.883c-3.27,4.01-4.847,9.371-7.236,14.03l0,0c-10.417,20.316,0.179,51.421,9.777,72.137l12.152,28.308&#10;&#9;&#9;&#9;c20.019-27.802,38.244-26.473,54.089-36.856c2.66-1.743,4.992-2.527,7.815-3.871c18.108-11.976,29.971-21.957,29.971-51.266&#10;&#9;&#9;&#9;l-0.205-15.165c-0.256-18.891-12.91-35.363-31.097-40.478l0,0C90.596,147.715,79.926,148.643,70.573,153.135z"/>
		<path style="fill:#FFB6D4;" d="M101.914,257.432C84.895,268.7,62.371,281.705,38.99,314.171l-24.531-52.948&#10;&#9;&#9;&#9;c-4.589-9.895-6.878-20.552-6.878-31.186c0-11.62,2.735-23.228,8.169-33.827c4.413-8.592,10.423-16.186,17.653-22.407&#10;&#9;&#9;&#9;c-2.887,7.125-4.472,14.918-4.472,23.087c0,34.015,27.571,61.598,61.586,61.598C94.414,258.488,98.229,258.124,101.914,257.432z"/>
		<path style="fill:#E2E8E8;" d="M504.5,213.2v27.73l-33.069,8.167L444,240.93l-11.345-25.903L444,182.93h30.24&#10;&#9;&#9;&#9;C490.95,182.93,504.5,196.48,504.5,213.2z"/>
		<path style="fill:#D2DBDB;" d="M444,182.93v58l-18.75,4.591l-18.75-4.591v-47.91c0-5.57,4.52-10.09,10.09-10.09H444z"/>
		<path style="fill:#F1F3F2;" d="M406.5,242.321l13.072-1.386H504.5v27c0,6.11-0.685,12.06-1.982,17.777&#10;&#9;&#9;&#9;c-0.591,2.606-7.142,4.648-7.981,7.15s4.034,5.466,2.961,7.852c-12.52,27.838-40.495,47.221-72.998,47.221h-3.516l-15.623-1.002&#10;&#9;&#9;&#9;c-29.547,0-46.494-22.951-46.494-52.498v0C358.867,264.887,376.953,242.321,406.5,242.321z"/>
		<path style="fill:#E2E8E8;" d="M424.75,347.93H405c-27.425,0-50.027-20.63-53.135-47.219c-0.241-2.06,3.237-7.001,3.237-7.001&#10;&#9;&#9;&#9;l-2.901-7.961c1.844-11.295,7.226-21.406,14.969-29.148c9.68-9.68,23.05-15.67,37.83-15.67h20c-14.78,0-28.15,5.99-37.83,15.67&#10;&#9;&#9;&#9;c-9.68,9.68-15.67,23.06-15.67,37.83C371.5,323.9,395.31,347.79,424.75,347.93z"/>
	</g>
	<g>
		<g>
			<path style="fill:none;stroke:#000000;stroke-width:15;stroke-linecap:round;stroke-linejoin:round;stroke-miterlimit:10;" d="&#10;&#9;&#9;&#9;&#9;M274.635,177.486c3.85,8.723,5.987,18.372,5.983,28.521c-0.009,23.899-11.882,45.032-30.05,57.833"/>
			<g>
				
					<line style="fill:none;stroke:#000000;stroke-width:15;stroke-linecap:round;stroke-linejoin:round;stroke-miterlimit:10;" x1="270.92" y1="177.791" x2="183.872" y2="177.824"/>
				<path style="fill:none;stroke:#000000;stroke-width:15;stroke-linecap:round;stroke-linejoin:round;stroke-miterlimit:10;" d="&#10;&#9;&#9;&#9;&#9;&#9;M131.875,206.5l0.006-32.288c0.01-26.029,21.06-47.213,46.926-47.223l92.131-0.035"/>
			</g>
			<path style="fill:none;stroke:#000000;stroke-width:15;stroke-linecap:round;stroke-linejoin:round;stroke-miterlimit:10;" d="&#10;&#9;&#9;&#9;&#9;M136.143,422.845c19.815,8.109,41.555,12.582,64.36,12.574h0c6.718-0.003,13.217-0.928,19.373-2.654&#10;&#9;&#9;&#9;&#9;c38.258-10.728,57.778-52.42,42.407-88.499c-5.772-13.549-10.798-28.972-10.767-63.927&#10;&#9;&#9;&#9;&#9;c0.056-61.991-51.178-112.171-114.19-112.147l-0.264,0c-1.561,0.001-3.114,0.035-4.658,0.103"/>
			<path style="fill:none;stroke:#000000;stroke-width:15;stroke-linecap:round;stroke-linejoin:round;stroke-miterlimit:10;" d="&#10;&#9;&#9;&#9;&#9;M38.89,314.248c10.537,37.904,34.484,70.351,66.516,92.103"/>
			<g>
				<path style="fill:none;stroke:#000000;stroke-width:15;stroke-linecap:round;stroke-linejoin:round;stroke-miterlimit:10;" d="&#10;&#9;&#9;&#9;&#9;&#9;M144.092,82.875c10.698-4.056,22.298-6.278,34.415-6.283l27.218-0.01c27.847-0.01,50.413,22.545,50.402,50.378v0"/>
				<path style="fill:none;stroke:#000000;stroke-width:15;stroke-linecap:round;stroke-linejoin:round;stroke-miterlimit:10;" d="&#10;&#9;&#9;&#9;&#9;&#9;M84.486,149.172c4.954-18.989,15.512-35.718,29.803-48.315"/>
			</g>
			<g>
				
					<line style="fill:none;stroke:#000000;stroke-width:15;stroke-linecap:round;stroke-linejoin:round;stroke-miterlimit:10;" x1="83.896" y1="98.288" x2="83.877" y2="149.229"/>
				
					<line style="fill:none;stroke:#000000;stroke-width:15;stroke-linecap:round;stroke-linejoin:round;stroke-miterlimit:10;" x1="33.351" y1="173.739" x2="33.379" y2="98.307"/>
			</g>
			<path style="fill:none;stroke:#000000;stroke-width:15;stroke-linecap:round;stroke-linejoin:round;stroke-miterlimit:10;" d="&#10;&#9;&#9;&#9;&#9;M20.801,275.19l18.087,39.045c48.309-67.04,92.961-51.187,92.982-108.039l-0.2-15.165c-0.249-18.891-12.903-35.358-31.097-40.466&#10;&#9;&#9;&#9;&#9;h0c-9.992-2.805-20.667-1.873-30.026,2.623L49.6,163.249c-14.606,7.016-26.518,18.616-33.915,33.028l0,0&#10;&#9;&#9;&#9;&#9;c-7.387,14.392-9.786,30.62-7.149,46.223"/>
			<path style="fill:none;stroke:#000000;stroke-width:15;stroke-linecap:round;stroke-linejoin:round;stroke-miterlimit:10;" d="&#10;&#9;&#9;&#9;&#9;M292.5,152.408c-0.005,14.063-9.612,25.378-21.58,25.383s-21.765-11.304-21.76-25.367c0.005-14.063,9.811-25.465,21.779-25.47&#10;&#9;&#9;&#9;&#9;C282.907,126.95,292.505,138.345,292.5,152.408z"/>
			
				<ellipse transform="matrix(1 -0.0025 0.0025 1 -0.2421 0.1448)" style="fill:none;stroke:#000000;stroke-width:15;stroke-linecap:round;stroke-linejoin:round;stroke-miterlimit:10;" cx="58.638" cy="98.297" rx="25.258" ry="21.66"/>
			<path style="fill:none;stroke:#000000;stroke-width:15;stroke-linecap:round;stroke-linejoin:round;stroke-miterlimit:10;" d="&#10;&#9;&#9;&#9;&#9;M94.507,262.511c12.553,69.456,49.022,42.087,76.197,111.174"/>
			<path style="fill:none;stroke:#000000;stroke-width:15;stroke-linecap:round;stroke-linejoin:round;stroke-miterlimit:10;" d="&#10;&#9;&#9;&#9;&#9;M105.194,295.099c15.612,25.673,0.639,51.34,0.639,51.34"/>
			<path style="fill:none;stroke:#000000;stroke-width:15;stroke-linecap:round;stroke-linejoin:round;stroke-miterlimit:10;" d="&#10;&#9;&#9;&#9;&#9;M143.953,331.672c25.816,21.768,51.645,10.786,51.645,10.786"/>
			<path style="fill:none;stroke:#000000;stroke-width:15;stroke-linecap:round;stroke-linejoin:round;stroke-miterlimit:10;" d="&#10;&#9;&#9;&#9;&#9;M131.867,213.239c31.148,4.479,66.798,48.378,73.701,78.775"/>
			<path style="fill:none;stroke:#000000;stroke-width:15;stroke-linecap:round;stroke-linejoin:round;stroke-miterlimit:10;" d="&#10;&#9;&#9;&#9;&#9;M170.756,235.567c14.003,13.954,42.325,10.802,42.325,10.802"/>
		</g>
		<path style="fill:none;stroke:#000000;stroke-width:15;stroke-linecap:round;stroke-linejoin:round;stroke-miterlimit:10;" d="&#10;&#9;&#9;&#9;M249.489,152.435h72.261c16.43,0,29.75,13.319,29.75,29.75v0c0,16.43,13.319,29.75,29.75,29.75h62.388"/>
		<path style="fill:none;stroke:#000000;stroke-width:15;stroke-linecap:round;stroke-linejoin:round;stroke-miterlimit:10;" d="&#10;&#9;&#9;&#9;M439.575,346.517c-4.882,0.931-9.921,1.418-15.075,1.418H405c-29.547,0-53.5-23.953-53.5-53.5v0c0-29.547,23.953-53.5,53.5-53.5&#10;&#9;&#9;&#9;h99.5v27c0,26.701-13.081,50.346-33.184,64.878"/>
		<path style="fill:none;stroke:#000000;stroke-width:15;stroke-linecap:round;stroke-linejoin:round;stroke-miterlimit:10;" d="&#10;&#9;&#9;&#9;M406.5,240.935v-47.913c0-5.571,4.516-10.087,10.087-10.087h57.651c16.713,0,30.262,13.549,30.262,30.262v27.738"/>
		
			<polyline style="fill:none;stroke:#000000;stroke-width:15;stroke-linecap:round;stroke-linejoin:round;stroke-miterlimit:10;" points="&#10;&#9;&#9;&#9;352,293.211 399.759,293.211 409.172,271.745 427.372,317.124 447,279.905 454.986,293.211 500,293.211 &#9;&#9;"/>
		
			<line style="fill:none;stroke:#000000;stroke-width:15;stroke-linecap:round;stroke-linejoin:round;stroke-miterlimit:10;" x1="444" y1="182.935" x2="444" y2="240.935"/>
	</g>
</g>















</svg>
