<svg id="Capa_1" enable-background="new 0 0 512.044 512.044" height="512" viewBox="0 0 512.044 512.044" width="512" xmlns="http://www.w3.org/2000/svg"><g><g><path d="m33.316 232.089c.937.524 1.294 1.694.808 2.651l-22.058 43.455c-6.42 12.643-6.012 27.677 1.078 39.956l68.338 118.356 32.159-100.097 22.626-44.433c.515-1.012 1.768-1.392 2.759-.838l20.507 11.478c3.375 1.889 7.291-1.407 6.006-5.055l-36.738-104.266c-1.8-5.109-7.196-8.007-12.45-6.685l-103.144 25.944c-3.682.926-4.337 5.878-1.022 7.73z" fill="#b3e59f"/><path d="m113.641 336.41 90.79 4.728c8.845.459 15.568 8.125 14.868 16.953l-6.872 86.646c-.674 8.494-7.988 14.907-16.497 14.466l-84.55-4.406c-12.431-.645-23.689-7.539-29.913-18.318-6.217-10.767-6.565-23.948-.926-35.029z" fill="#95d6a4"/><path d="m392.5 80.02c-.922.55-2.114.274-2.7-.626l-26.607-40.829c-7.74-11.881-20.965-19.044-35.144-19.044h-136.676l70.614 77.897 27.17 41.81c.619.952.322 2.228-.654 2.808l-20.194 12.019c-3.323 1.978-2.427 7.017 1.374 7.728l108.675 20.32c5.325.996 10.532-2.228 12.015-7.439l29.102-102.29c1.039-3.652-2.922-6.696-6.183-4.751z" fill="#b3e59f"/><path d="m261.987 97.417-49.49 76.256c-4.82 7.43-14.821 9.419-22.117 4.398l-71.607-49.274c-7.019-4.83-8.917-14.371-4.28-21.519l46.091-71.014c6.774-10.442 18.374-16.744 30.822-16.744 12.434 0 24.024 6.289 30.801 16.713z" fill="#95d6a4"/><path d="m338.33 464.294c.041-1.073.922-1.922 1.995-1.924l48.737-.076c14.181-.02 27.391-7.209 35.114-19.1l74.439-114.617-103.795 16.792-49.866.013c-1.135 0-2.043-.944-1.999-2.078l.917-23.481c.151-3.865-4.564-5.858-7.23-3.056l-76.231 80.068c-3.735 3.923-3.868 10.046-.305 14.127l69.945 80.117c2.497 2.861 7.207 1.196 7.352-2.599z" fill="#b3e59f"/><path d="m394.82 345.369-37.005-83.035c-3.607-8.088.172-17.558 8.357-20.943l80.328-33.213c7.874-3.256 16.91.349 20.38 8.131l34.46 77.329c5.069 11.368 4.037 24.529-2.743 34.967-6.772 10.427-18.359 16.722-30.793 16.728z" fill="#95d6a4"/></g><g><path d="m204.82 333.648-23.509-1.225c-4.146-.207-7.665 2.963-7.881 7.1-.215 4.137 2.964 7.665 7.1 7.881l23.512 1.225c3.437.255 7.925 3.186 7.78 8.87l-6.873 86.646c-.355 4.477-4.174 7.79-8.63 7.568l-84.552-4.405c-9.931-.516-18.829-5.963-23.803-14.572l-.007-.012c-4.964-8.602-5.238-19.02-.733-27.871l30.892-60.698 27.442 1.43c4.127.222 7.663-2.964 7.88-7.101.215-4.136-2.964-7.664-7.101-7.88l-20.771-1.082 14.789-29.043 15.517 8.685c4.286 2.397 9.483 1.904 13.242-1.259s5.132-8.2 3.499-12.833l-36.738-104.266c-3.106-8.818-12.289-13.746-21.354-11.468l-103.144 25.943c-4.678 1.178-8.109 5.028-8.741 9.81s1.681 9.391 5.891 11.742l16.518 9.227-19.666 38.74c-7.597 14.959-7.122 32.567 1.271 47.102l68.318 118.321c.001.002.002.004.003.006s.002.004.004.006l.013.022c.004.007.009.012.012.019 7.53 13.004 20.98 21.231 35.989 22.012 2.762.11 82.994 4.389 85.801 4.438 12.106 0 22.144-9.178 23.113-21.396l6.873-86.646c1.128-11.586-8.474-24.512-21.956-25.036zm-186.066-52.058 22.928-45.169c1.822-3.59.485-7.979-3.03-9.942l-15.541-8.682 95.069-23.913c1.51-.379 3.031.439 3.548 1.904l33.828 96.008-14.681-8.218c-1.78-.995-3.89-1.222-5.842-.632-1.952.593-3.579 1.955-4.505 3.773-14.957 30.269-59.158 117.276-59.158 117.276l-51.73-89.593c-5.847-10.125-6.178-22.391-.886-32.812z"/><path d="m504.913 332.646c8.171-12.614 9.398-28.334 3.276-42.061l-8.655-19.422c-1.687-3.784-6.124-5.484-9.903-3.798-3.783 1.687-5.483 6.12-3.798 9.903l8.656 19.424c4.048 9.077 3.235 19.472-2.171 27.809l-.024.037c-5.413 8.32-14.567 13.29-24.494 13.294l-68.112.033-35.022-78.586c-1.333-3.18-.759-8.506 4.373-10.958l80.327-33.213c4.152-1.718 8.836.154 10.664 4.253l11.377 25.53c1.687 3.784 6.119 5.484 9.903 3.798 3.783-1.687 5.483-6.12 3.798-9.903l-11.378-25.532c-5.163-11.575-18.38-16.852-30.096-12.008l-80.327 33.214c-11.036 4.375-17.907 18.63-12.342 30.926l32.303 72.485-32.594.009.693-17.765c.192-4.908-2.606-9.315-7.131-11.229-4.524-1.912-9.638-.85-13.025 2.707l-76.231 80.068c-6.445 6.771-6.67 17.188-.521 24.23l69.944 80.117c2.272 2.603 5.476 4.013 8.782 4.013 1.31 0 2.636-.222 3.927-.678 4.547-1.607 7.604-5.761 7.787-10.579l.724-18.905 43.45-.067c16.778-.023 32.252-8.439 41.394-22.515l74.408-114.571c.004-.006.009-.012.012-.018s.007-.012.011-.019l.006-.01c.003-.002.006-.007.009-.013zm-87.028 106.464c-6.368 9.805-17.147 15.669-28.836 15.685l-50.658.079c-4.026.006-7.329 3.19-7.482 7.213l-.681 17.789-64.471-73.847c-1.021-1.169-.983-2.898.086-4.022l70.193-73.727-.656 16.811c-.08 2.039.675 4.022 2.089 5.492 1.414 1.471 3.365 2.301 5.405 2.301l131.358-.535z"/><path d="m114.521 134.976 71.607 49.274c9.189 6.803 25.663 4.887 32.659-6.494l43.203-66.568 17.76 27.328-15.277 9.094c-4.222 2.512-6.394 7.26-5.533 12.097.859 4.837 4.535 8.545 9.364 9.448 2.167.269 37.484 7.266 39.953 7.34 3.539 0 6.689-2.517 7.363-6.122.762-4.072-1.922-7.99-5.993-8.751l-29.957-5.602 14.456-8.604c1.753-1.043 3.006-2.756 3.469-4.743s.096-4.077-1.016-5.788c-8.016-12.335-32.293-49.693-39.768-61.187-2.259-3.475-6.907-4.458-10.376-2.2-3.473 2.258-4.458 6.903-2.2 10.376l8.808 13.548-46.839 72.171c-1.941 2.848-6.72 5.269-11.572 2.301l-71.608-49.274c-3.699-2.546-4.684-7.491-2.24-11.257l46.092-71.016c5.414-8.345 14.584-13.326 24.53-13.326 9.935 0 19.099 4.973 24.514 13.301l9.315 14.329c2.258 3.474 6.902 4.456 10.376 2.2 3.473-2.258 4.458-6.903 2.2-10.376l-13.222-19.455h103.46c11.692 0 22.481 5.846 28.861 15.639l27.657 42.44c2.197 3.373 6.667 4.407 10.125 2.347l15.291-9.118-26.824 94.283c-.424 1.494-1.89 2.405-3.424 2.119l-35.298-6.6c-4.066-.759-7.988 1.922-8.75 5.994-.762 4.071 1.922 7.989 5.994 8.75 6.789 1.073 33.915 6.773 38.667 6.914 7.907 0 14.995-5.188 17.238-13.072l29.102-102.29c1.319-4.639-.299-9.535-4.123-12.474s-8.973-3.24-13.115-.771l-16.251 9.69-23.722-36.401c-9.158-14.058-24.646-22.45-41.429-22.45h-136.675c-.018 0-.036.003-.054.003-15.015.029-28.852 7.559-37.026 20.158l-46.092 71.016c-6.899 10.634-4.122 24.593 6.32 31.779z"/></g></g></svg>